<mxfile host="Electron" modified="2023-09-14T07:17:59.174Z" agent="Mozilla/5.0 (Windows NT 10.0; Win64; x64) AppleWebKit/537.36 (KHTML, like Gecko) draw.io/21.5.1 Chrome/112.0.5615.204 Electron/24.6.0 Safari/537.36" etag="fvXEpt5mk3yzK7FZ917v" version="21.5.1" type="device">
  <diagram name="第 1 页" id="dG-HHfjcZh_IqVn4rQrE">
    <mxGraphModel dx="941" dy="692" grid="1" gridSize="10" guides="1" tooltips="1" connect="1" arrows="1" fold="1" page="1" pageScale="1" pageWidth="827" pageHeight="1169" math="0" shadow="0">
      <root>
        <mxCell id="0" />
        <mxCell id="1" parent="0" />
        <mxCell id="TukIXJ03Lk0DK614F1nP-2" style="edgeStyle=orthogonalEdgeStyle;rounded=0;orthogonalLoop=1;jettySize=auto;html=1;exitX=0.5;exitY=1;exitDx=0;exitDy=0;entryX=0.5;entryY=0;entryDx=0;entryDy=0;endArrow=none;endFill=0;" edge="1" parent="1" source="88o-NPeRRdEmhLn4B-oO-1" target="TukIXJ03Lk0DK614F1nP-1">
          <mxGeometry relative="1" as="geometry" />
        </mxCell>
        <mxCell id="TukIXJ03Lk0DK614F1nP-4" style="edgeStyle=orthogonalEdgeStyle;rounded=0;orthogonalLoop=1;jettySize=auto;html=1;exitX=0.5;exitY=1;exitDx=0;exitDy=0;endArrow=none;endFill=0;" edge="1" parent="1" source="88o-NPeRRdEmhLn4B-oO-1" target="TukIXJ03Lk0DK614F1nP-3">
          <mxGeometry relative="1" as="geometry" />
        </mxCell>
        <mxCell id="TukIXJ03Lk0DK614F1nP-7" style="edgeStyle=orthogonalEdgeStyle;rounded=0;orthogonalLoop=1;jettySize=auto;html=1;exitX=0.5;exitY=1;exitDx=0;exitDy=0;endArrow=none;endFill=0;" edge="1" parent="1" source="88o-NPeRRdEmhLn4B-oO-1" target="TukIXJ03Lk0DK614F1nP-5">
          <mxGeometry relative="1" as="geometry" />
        </mxCell>
        <mxCell id="TukIXJ03Lk0DK614F1nP-8" style="edgeStyle=orthogonalEdgeStyle;rounded=0;orthogonalLoop=1;jettySize=auto;html=1;exitX=0.5;exitY=1;exitDx=0;exitDy=0;endArrow=none;endFill=0;" edge="1" parent="1" source="88o-NPeRRdEmhLn4B-oO-1" target="TukIXJ03Lk0DK614F1nP-6">
          <mxGeometry relative="1" as="geometry" />
        </mxCell>
        <mxCell id="88o-NPeRRdEmhLn4B-oO-1" value="系统访问权限" style="rounded=0;whiteSpace=wrap;html=1;" parent="1" vertex="1">
          <mxGeometry x="480" y="90" width="120" height="60" as="geometry" />
        </mxCell>
        <mxCell id="TukIXJ03Lk0DK614F1nP-1" value="用户账号密码管理" style="rounded=0;whiteSpace=wrap;html=1;" vertex="1" parent="1">
          <mxGeometry x="234" y="200" width="120" height="60" as="geometry" />
        </mxCell>
        <mxCell id="TukIXJ03Lk0DK614F1nP-3" value="用户组管理" style="rounded=0;whiteSpace=wrap;html=1;" vertex="1" parent="1">
          <mxGeometry x="390" y="200" width="120" height="60" as="geometry" />
        </mxCell>
        <mxCell id="TukIXJ03Lk0DK614F1nP-5" value="用户组鉴权" style="rounded=0;whiteSpace=wrap;html=1;" vertex="1" parent="1">
          <mxGeometry x="550" y="200" width="120" height="60" as="geometry" />
        </mxCell>
        <mxCell id="TukIXJ03Lk0DK614F1nP-6" value="用户模块流转" style="rounded=0;whiteSpace=wrap;html=1;" vertex="1" parent="1">
          <mxGeometry x="707" y="200" width="120" height="60" as="geometry" />
        </mxCell>
      </root>
    </mxGraphModel>
  </diagram>
</mxfile>
